<svg class="animated" id="freepik_stories-design-tools" xmlns="http://www.w3.org/2000/svg" viewBox="0 0 500 500" version="1.1" xmlns:xlink="http://www.w3.org/1999/xlink" xmlns:svgjs="http://svgjs.com/svgjs"><style>svg#freepik_stories-design-tools:not(.animated) .animable {opacity: 0;}svg#freepik_stories-design-tools.animated #elr5zf82f67u {animation: 2.9s 1 forwards ease-in fadeIn;animation-delay: 0s;}svg#freepik_stories-design-tools.animated #ellgijmfuw82 {animation: 2.9s 1 forwards ease-in fadeIn;animation-delay: 1.45s;opacity: 0}svg#freepik_stories-design-tools.animated #freepik--background-simple--inject-233 {animation: 2.9s 1 forwards ease-in fadeIn,1.5s Infinite  linear floating;animation-delay: 0s,2.9s;}svg#freepik_stories-design-tools.animated #freepik--Plants--inject-233 {animation: 2.9s 1 forwards cubic-bezier(.36,-0.01,.5,1.38) fadeIn,1.5s Infinite  linear floating;animation-delay: 0s,2.9s;}            @keyframes fadeIn {                0% {                    opacity: 0;                }                100% {                    opacity: 1;                }            }                    @keyframes floating {                0% {                    opacity: 1;                    transform: translateY(0px);                }                50% {                    transform: translateY(-10px);                }                100% {                    opacity: 1;                    transform: translateY(0px);                }            }        .animator-hidden { display: none; }</style><g id="freepik--background-simple--inject-233" style="transform-origin: 247.651px 260.457px 0px;" class="animable animator-active"><path d="M47.79,223.07S24.17,283.6,58.9,331.15s93.81,46.24,139.58,61.2c24,7.83,38.84,29.19,59.56,42.19,66.27,41.55,165.8-16.67,188.59-83.91,19.73-58.2,6-112.67-41.11-169.6s-78-99-162.66-107.93S81.6,146.27,47.79,223.07Z" style="fill: #FF81AE; transform-origin: 247.651px 260.457px 0px;" id="elr5zf82f67u" class="animable"></path><g id="ellgijmfuw82" class=""><path d="M47.79,223.07S24.17,283.6,58.9,331.15s93.81,46.24,139.58,61.2c24,7.83,38.84,29.19,59.56,42.19,66.27,41.55,165.8-16.67,188.59-83.91,19.73-58.2,6-112.67-41.11-169.6s-78-99-162.66-107.93S81.6,146.27,47.79,223.07Z" style="fill: rgb(255, 255, 255); opacity: 0.75; transform-origin: 247.651px 260.457px 0px;" class="animable" id="ele0z46gg6tfi"></path></g></g><g id="freepik--Plants--inject-233" style="transform-origin: 239.423px 349.857px 0px;" class="animable animator-hidden"><path d="M359,403.69c1.57-3.53,3.87-9.19,4.66-13.68C365,383,355,385.44,355,385.44s5.4-8.3,5-14.95-6.65-3.32-6.65-3.32,5.4-27.4-2.49-32.38-13.29,32-13.29,32-3.32-5.4-9.55-3.32-3.32,18.68-3.32,18.68-7.06-8.3-8.72,0c-1.22,6.12,5.22,16.52,8.69,21.57Z" style="fill: #FF81AE; stroke: rgb(38, 50, 56); stroke-linecap: round; stroke-linejoin: round; transform-origin: 339.806px 369.024px 0px;" id="elg2o5xxho3s" class="animable"></path><line x1="340.05" y1="403.69" x2="347.42" y2="353.62" style="fill: none; stroke: rgb(38, 50, 56); stroke-linecap: round; stroke-linejoin: round; transform-origin: 343.735px 378.655px 0px;" id="ely9jt00hadzj" class="animable"></line><line x1="341.59" y1="393.55" x2="332.37" y2="375.43" style="fill: none; stroke: rgb(38, 50, 56); stroke-linecap: round; stroke-linejoin: round; transform-origin: 336.98px 384.49px 0px;" id="elx2c6bc4fg6" class="animable"></line><line x1="342.51" y1="386.18" x2="354.18" y2="376.96" style="fill: none; stroke: rgb(38, 50, 56); stroke-linecap: round; stroke-linejoin: round; transform-origin: 348.345px 381.57px 0px;" id="eldnlkjcdpfx" class="animable"></line><path d="M182.17,403.69c2.45-5.48,6-14.28,7.25-21.25,1.94-11-13.54-7.09-13.54-7.09s8.38-12.9,7.74-23.22S173.3,347,173.3,347s8.38-42.56-3.87-50.29-20.64,49.64-20.64,49.64S143.64,338,134,341.17s-5.16,29-5.16,29-11-12.9-13.54,0c-1.9,9.51,8.1,25.66,13.5,33.5Z" style="fill: #FF81AE; stroke: rgb(38, 50, 56); stroke-linecap: round; stroke-linejoin: round; transform-origin: 152.326px 349.842px 0px;" id="elrp8893vzaf" class="animable"></path><line x1="152.69" y1="403.69" x2="164.14" y2="325.92" style="fill: none; stroke: rgb(38, 50, 56); stroke-linecap: round; stroke-linejoin: round; transform-origin: 158.415px 364.805px 0px;" id="el46nzz7nyte7" class="animable"></line><line x1="155.07" y1="387.94" x2="140.76" y2="359.8" style="fill: none; stroke: rgb(38, 50, 56); stroke-linecap: round; stroke-linejoin: round; transform-origin: 147.915px 373.87px 0px;" id="el7sswbf8vvn3" class="animable"></line><line x1="156.5" y1="376.49" x2="174.63" y2="362.18" style="fill: none; stroke: rgb(38, 50, 56); stroke-linecap: round; stroke-linejoin: round; transform-origin: 165.565px 369.335px 0px;" id="elt6y5p29hajg" class="animable"></line></g><g id="freepik--Floor--inject-233" style="transform-origin: 246.09px 403.69px 0px;" class="animable animator-hidden"><line x1="119.03" y1="403.69" x2="384.97" y2="403.69" style="fill: none; stroke: rgb(38, 50, 56); stroke-linecap: round; stroke-linejoin: round; transform-origin: 252px 403.69px 0px;" id="elf7snp5r36bw" class="animable"></line><line x1="107.21" y1="403.69" x2="111.59" y2="403.69" style="fill: none; stroke: rgb(38, 50, 56); stroke-linecap: round; stroke-linejoin: round; transform-origin: 109.4px 403.69px 0px;" id="el5deh19folk4" class="animable"></line></g><g id="freepik--Clouds--inject-233" style="transform-origin: 226.48px 145.445px 0px;" class="animable animator-hidden"><path d="M330.21,164.33s-9.46-10.13-17.56-9.46-9.46,8.79-14.19,9.46-12.83-7.43-18.91-4.05-4.73,8.11-9.46,8.78-10.81-4.05-15.54-2a60.21,60.21,0,0,0-10.13,6.08H347.77S345.07,161,330.21,164.33Z" style="fill: none; stroke: rgb(38, 50, 56); stroke-linecap: round; stroke-linejoin: round; transform-origin: 296.095px 163.989px 0px;" id="elkixp4wwnsrd" class="animable"></path><path d="M192.4,130.55s-9.46-10.13-17.56-9.45-9.46,8.78-14.19,9.45-12.83-7.43-18.91-4.05-4.73,8.11-9.46,8.78-10.81-4.05-15.54-2a59.49,59.49,0,0,0-10.13,6.08H210S207.26,127.18,192.4,130.55Z" style="fill: none; stroke: rgb(38, 50, 56); stroke-linecap: round; stroke-linejoin: round; transform-origin: 158.305px 130.214px 0px;" id="eln4ne675kp8" class="animable"></path><line x1="174.84" y1="121.1" x2="183.5" y2="119.25" style="fill: none; stroke: rgb(38, 50, 56); stroke-linecap: round; stroke-linejoin: round; transform-origin: 179.17px 120.175px 0px;" id="el9h448zu9j3l" class="animable"></line><circle cx="183.5" cy="119.25" r="1.5" style="fill: rgb(38, 50, 56); transform-origin: 183.5px 119.25px 0px;" id="eltvewuzg1fcf" class="animable"></circle><rect x="114.72" y="131.71" width="3.31" height="3.31" style="fill: rgb(255, 255, 255); stroke: rgb(38, 50, 56); stroke-linecap: round; stroke-linejoin: round; transform-origin: 116.375px 133.365px 0px;" id="elsu2w6ypno6f" class="animable"></rect><rect x="129.97" y="133.46" width="3.31" height="3.31" style="fill: rgb(255, 255, 255); stroke: rgb(38, 50, 56); stroke-linecap: round; stroke-linejoin: round; transform-origin: 131.625px 135.115px 0px;" id="elgfr42fg8y4" class="animable"></rect><rect x="139.19" y="125.42" width="3.31" height="3.31" style="fill: rgb(255, 255, 255); stroke: rgb(38, 50, 56); stroke-linecap: round; stroke-linejoin: round; transform-origin: 140.845px 127.075px 0px;" id="elnm1prl1w0cb" class="animable"></rect><rect x="156.59" y="128.34" width="3.31" height="3.31" style="fill: rgb(255, 255, 255); stroke: rgb(38, 50, 56); stroke-linecap: round; stroke-linejoin: round; transform-origin: 158.245px 129.995px 0px;" id="elnszgiqcq2tp" class="animable"></rect><rect x="172.34" y="119.59" width="3.31" height="3.31" style="fill: rgb(255, 255, 255); stroke: rgb(38, 50, 56); stroke-linecap: round; stroke-linejoin: round; transform-origin: 173.995px 121.245px 0px;" id="el6if7q1c12p9" class="animable"></rect><rect x="190.74" y="128.9" width="3.31" height="3.31" style="fill: rgb(255, 255, 255); stroke: rgb(38, 50, 56); stroke-linecap: round; stroke-linejoin: round; transform-origin: 192.395px 130.555px 0px;" id="elpwuhqy3ojb8" class="animable"></rect><rect x="208.31" y="137.68" width="3.31" height="3.31" style="fill: rgb(255, 255, 255); stroke: rgb(38, 50, 56); stroke-linecap: round; stroke-linejoin: round; transform-origin: 209.965px 139.335px 0px;" id="elqwwiedotqtg" class="animable"></rect><rect x="105.19" y="137.68" width="3.31" height="3.31" style="fill: rgb(255, 255, 255); stroke: rgb(38, 50, 56); stroke-linecap: round; stroke-linejoin: round; transform-origin: 106.845px 139.335px 0px;" id="el518f0ae1gum" class="animable"></rect></g><g id="freepik--Character--inject-233" style="transform-origin: 230.341px 279.67px 0px;" class="animable animator-hidden"><polygon points="298.85 319.76 290.04 312.45 291.08 323.85 293.89 319.82 298.85 319.76" style="fill: rgb(38, 50, 56); transform-origin: 294.445px 318.15px 0px;" id="eliselp0ywnx8" class="animable"></polygon><polygon points="202.39 190.85 209.59 201.97 216.78 194.78 211.88 184.31 213.84 176.79 203.7 172.87 202.39 190.85" style="fill: rgb(255, 255, 255); stroke: rgb(38, 50, 56); stroke-linecap: round; stroke-linejoin: round; transform-origin: 209.585px 187.42px 0px;" id="elwp0bu8roprp" class="animable"></polygon><path d="M187.53,173.08l.33,6.86L185,185.82a1.19,1.19,0,0,0,.87,1.69l3.6.61s4.25,11.77,5.56,12.1,14.39-5.89,14.71-8.18,1-6.54,1-6.54a4.8,4.8,0,0,0,3.27-4.58c0-3.59-6.21-4.57-6.21-4.57Z" style="fill: rgb(255, 255, 255); stroke: rgb(38, 50, 56); stroke-linecap: round; stroke-linejoin: round; transform-origin: 199.446px 186.656px 0px;" id="elrk5jh1r4pv" class="animable"></path><path d="M191.58,180c0,1-.35,1.77-.79,1.77S190,181,190,180s.36-1.77.8-1.77S191.58,179,191.58,180Z" style="fill: rgb(38, 50, 56); transform-origin: 190.79px 180px 0px;" id="ellihnmrtm7tj" class="animable"></path><path d="M189.11,176.82a2.55,2.55,0,0,1,4.06-.35" style="fill: none; stroke: rgb(38, 50, 56); stroke-linecap: round; stroke-linejoin: round; transform-origin: 191.14px 176.221px 0px;" id="elvvt2qg6vzxi" class="animable"></path><path d="M191.58,189.54a4.09,4.09,0,0,0,4.42-2.83" style="fill: none; stroke: rgb(38, 50, 56); stroke-linecap: round; stroke-linejoin: round; transform-origin: 193.79px 188.142px 0px;" id="eluz5yzjb7q" class="animable"></path><path d="M187.53,173.08l33.36,5.56s.66-11.78-3.27-18-16.35-5.23-22.89-2.62S187.53,173.08,187.53,173.08Z" style="fill: #FF81AE; stroke: rgb(38, 50, 56); stroke-linecap: round; stroke-linejoin: round; transform-origin: 204.231px 167.315px 0px;" id="elqo3kytsn4qe" class="animable"></path><path d="M201.6,175.69s0,4.91,2,4.58,4.25-3.92,4.25-3.92Z" style="fill: rgb(38, 50, 56); stroke: rgb(38, 50, 56); stroke-linecap: round; stroke-linejoin: round; transform-origin: 204.725px 177.988px 0px;" id="elq03pu2gtei" class="animable"></path><path d="M205.86,176.35s10.79,11.78,15.37,12.1,11.12-1.31,9.48-3.27-10-7.12-10-7.12Z" style="fill: #FF81AE; stroke: rgb(38, 50, 56); stroke-linecap: round; stroke-linejoin: round; transform-origin: 218.414px 182.42px 0px;" id="elo5uc29rzvrn" class="animable"></path><path d="M235.84,288.66c10.75,16,25.45,37.71,26.07,37.91,1,.33,58.87-27.8,58.87-27.8s13.08,28.13,14.72,27.8-2.29-36-3.93-36.3-65.73,20.93-65.73,20.93l-12.43-40.88-.08-.21a31.63,31.63,0,0,0,1.71-9.27l-37.28,8.83.33,7.52s-25.51,35-25.51,36.63,5.23,54.29,5.23,54.29-25.18,15.69-23.87,16.35,35.65,0,35.65,0l-2-18-2.29-51.34S222.2,301,235.84,288.66" style="fill: none; stroke: rgb(38, 50, 56); stroke-linecap: round; stroke-linejoin: round; transform-origin: 254.891px 322.797px 0px;" id="elf3xgtelu70c" class="animable"></path><rect x="190.87" y="312.12" width="3.31" height="3.31" style="fill: rgb(255, 255, 255); stroke: rgb(38, 50, 56); stroke-linecap: round; stroke-linejoin: round; transform-origin: 192.525px 313.775px 0px;" id="elnaxiibt1xz9" class="animable"></rect><rect x="203.68" y="313.47" width="3.31" height="3.31" style="fill: rgb(255, 255, 255); stroke: rgb(38, 50, 56); stroke-linecap: round; stroke-linejoin: round; transform-origin: 205.335px 315.125px 0px;" id="elxcg9y86l8fh" class="animable"></rect><rect x="196.16" y="366.45" width="3.31" height="3.31" style="fill: rgb(255, 255, 255); stroke: rgb(38, 50, 56); stroke-linecap: round; stroke-linejoin: round; transform-origin: 197.815px 368.105px 0px;" id="el2d5tm274ebe" class="animable"></rect><rect x="172.28" y="382.8" width="3.31" height="3.31" style="fill: rgb(255, 255, 255); stroke: rgb(38, 50, 56); stroke-linecap: round; stroke-linejoin: round; transform-origin: 173.935px 384.455px 0px;" id="eloy4c8xrrgih" class="animable"></rect><rect x="205.97" y="364.81" width="3.31" height="3.31" style="fill: rgb(255, 255, 255); stroke: rgb(38, 50, 56); stroke-linecap: round; stroke-linejoin: round; transform-origin: 207.625px 366.465px 0px;" id="elcb2mc0mszmd" class="animable"></rect><rect x="260.25" y="324.92" width="3.31" height="3.31" style="fill: rgb(255, 255, 255); stroke: rgb(38, 50, 56); stroke-linecap: round; stroke-linejoin: round; transform-origin: 261.905px 326.575px 0px;" id="ele3kktrmr57d" class="animable"></rect><rect x="234.18" y="287" width="3.31" height="3.31" style="fill: rgb(255, 255, 255); stroke: rgb(38, 50, 56); stroke-linecap: round; stroke-linejoin: round; transform-origin: 235.835px 288.655px 0px;" id="elebx1iu4i5x" class="animable"></rect><rect x="264.18" y="309.54" width="3.31" height="3.31" style="fill: rgb(255, 255, 255); stroke: rgb(38, 50, 56); stroke-linecap: round; stroke-linejoin: round; transform-origin: 265.835px 311.195px 0px;" id="elj8fuy62ade" class="animable"></rect><rect x="319.12" y="297.12" width="3.31" height="3.31" style="fill: rgb(255, 255, 255); stroke: rgb(38, 50, 56); stroke-linecap: round; stroke-linejoin: round; transform-origin: 320.775px 298.775px 0px;" id="el4bx91jt2hu5" class="animable"></rect><rect x="333.32" y="325.17" width="3.31" height="3.31" style="fill: rgb(255, 255, 255); stroke: rgb(38, 50, 56); stroke-linecap: round; stroke-linejoin: round; transform-origin: 334.975px 326.825px 0px;" id="elmvlvsz8mx3e" class="animable"></rect><rect x="329.97" y="288.38" width="3.31" height="3.31" style="fill: rgb(255, 255, 255); stroke: rgb(38, 50, 56); stroke-linecap: round; stroke-linejoin: round; transform-origin: 331.625px 290.035px 0px;" id="el4varlvya0ph" class="animable"></rect><rect x="207.44" y="382.33" width="3.31" height="3.31" style="fill: rgb(255, 255, 255); stroke: rgb(38, 50, 56); stroke-linecap: round; stroke-linejoin: round; transform-origin: 209.095px 383.985px 0px;" id="elxml7ld785n" class="animable"></rect><path d="M284.48,245.47l-15.7-42.84-13-3.69-3.86,9.32,8.68,2.22,16,36.62s-1.31,3.6-1,5.24,3.27,8.5,5.23,9.48a2.15,2.15,0,0,0,2.94-.65s6.87-2.62,7.53-4.26-1.64-4.57-2-6.86S284.48,245.47,284.48,245.47Z" style="fill: rgb(255, 255, 255); stroke: rgb(38, 50, 56); stroke-linecap: round; stroke-linejoin: round; transform-origin: 271.669px 230.543px 0px;" id="elyker8o28t5f" class="animable"></path><path d="M272.28,390.66H146.63l-15.75-9.59a2.93,2.93,0,1,1,3.05-5l14.34,8.73H269.86l5-5a2.93,2.93,0,0,1,4.14,4.14Z" style="fill: rgb(38, 50, 56); stroke: rgb(38, 50, 56); stroke-miterlimit: 10; transform-origin: 204.583px 383.125px 0px;" id="elqb79l2d3rwg" class="animable"></path><path d="M164.2,397.47a5.89,5.89,0,1,0-5.89,5.88A5.89,5.89,0,0,0,164.2,397.47Z" style="fill: rgb(38, 50, 56); stroke: rgb(38, 50, 56); stroke-linecap: round; stroke-linejoin: round; transform-origin: 158.31px 397.46px 0px;" id="el0m37haflvd4l" class="animable"></path><circle cx="158.31" cy="397.47" r="2.8" style="fill: rgb(255, 255, 255); stroke: rgb(38, 50, 56); stroke-linecap: round; stroke-linejoin: round; transform-origin: 158.31px 397.47px 0px;" id="el500ygasyj5o" class="animable"></circle><path d="M254.13,397.47a5.89,5.89,0,1,0-5.88,5.88A5.89,5.89,0,0,0,254.13,397.47Z" style="fill: rgb(38, 50, 56); stroke: rgb(38, 50, 56); stroke-linecap: round; stroke-linejoin: round; transform-origin: 248.24px 397.46px 0px;" id="elym9c1z3yfed" class="animable"></path><path d="M251.05,397.47a2.8,2.8,0,1,0-2.8,2.8A2.8,2.8,0,0,0,251.05,397.47Z" style="fill: rgb(255, 255, 255); stroke: rgb(38, 50, 56); stroke-linecap: round; stroke-linejoin: round; transform-origin: 248.25px 397.47px 0px;" id="elc50v02h76gf" class="animable"></path><path d="M185.75,220.27l-6.91,5.25-37.42-5.16-4.53-7-7.25.7-.23,1.4s-4.68,0-5.15.94,0,4.21,0,4.21l1.87.46s-.23,4.21.94,5.15,11.7,1,11.7,1L183.42,238l9.85-8.24Z" style="fill: rgb(255, 255, 255); stroke: rgb(38, 50, 56); stroke-linecap: round; stroke-linejoin: round; transform-origin: 158.661px 225.68px 0px;" id="eloxkl4j3uq0p" class="animable"></path><path d="M279.23,258.75l6.93-2a1.44,1.44,0,0,0,1-1.37h0a1.44,1.44,0,0,0-1.26-1.42l-4.82-.55" style="fill: rgb(255, 255, 255); stroke: rgb(38, 50, 56); stroke-linecap: round; stroke-linejoin: round; transform-origin: 283.195px 256.08px 0px;" id="ela4slq01t4dk" class="animable"></path><line x1="284.38" y1="254.08" x2="282.97" y2="249.64" style="fill: rgb(255, 255, 255); stroke: rgb(38, 50, 56); stroke-linecap: round; stroke-linejoin: round; transform-origin: 283.675px 251.86px 0px;" id="el6ur6suk6jp" class="animable"></line><line x1="287.18" y1="254.08" x2="289.99" y2="252.91" style="fill: rgb(255, 255, 255); stroke: rgb(38, 50, 56); stroke-linecap: round; stroke-linejoin: round; transform-origin: 288.585px 253.495px 0px;" id="elc48gg8yvcvr" class="animable"></line><path d="M252.34,215.41l9-15.18s-23.58-7.43-32.94-8.72-11.95,1.61-11.95,1.61l-15.74,15.39L180,224.12,190,240,204.8,228l12.32,52.31s17.14-.4,25.88-4c9.3-3.88,18.38-11.75,18.38-11.75l-28.79-61Z" style="fill: rgb(38, 50, 56); stroke: rgb(38, 50, 56); stroke-miterlimit: 10; transform-origin: 220.69px 235.745px 0px;" id="elpl4smhl9ovq" class="animable"></path></g><g id="freepik--Window--inject-233" style="transform-origin: 251.885px 259.32px 0px;" class="animable animator-hidden"><path d="M96.92,97V421.64H406.85V97Zm306.5,314.36H100.35V110.72H403.42Z" style="fill: rgb(38, 50, 56); stroke: rgb(38, 50, 56); stroke-linecap: round; stroke-linejoin: round; transform-origin: 251.885px 259.32px 0px;" id="eld39nz0nl6hk" class="animable"></path><g id="elhhwcv7gk7n5"><path d="M96.92,97V421.64H406.85V97Zm306.5,314.36H100.35V110.72H403.42Z" style="fill: rgb(255, 255, 255); opacity: 0.2; transform-origin: 251.885px 259.32px 0px;" class="animable" id="el0wq2vebsggy"></path></g><rect x="100.35" y="110.72" width="303.07" height="300.64" style="fill: none; stroke: rgb(38, 50, 56); stroke-linecap: round; stroke-linejoin: round; transform-origin: 251.885px 261.04px 0px;" id="ellkyzsjhjfe" class="animable"></rect><path d="M108.14,98.66h-6.41v9h7.72V99.9Zm.81,8.43h-6.72V99.24h5.58l1.14,1.08Z" style="fill: #FF81AE; transform-origin: 105.59px 103.16px 0px;" id="elq6nreswktap" class="animable"></path><line x1="397.55" y1="100.62" x2="392.65" y2="104.87" style="fill: none; stroke: #FF81AE; stroke-miterlimit: 10; transform-origin: 395.1px 102.745px 0px;" id="el7h37ot2asqc" class="animable"></line><line x1="392.65" y1="100.62" x2="397.55" y2="104.87" style="fill: none; stroke: #FF81AE; stroke-miterlimit: 10; transform-origin: 395.1px 102.745px 0px;" id="elyoopdcyd9kr" class="animable"></line><polyline points="404.08 98.01 404.08 107.81 359.64 107.81 359.64 98.01" style="fill: none; stroke: #FF81AE; stroke-miterlimit: 10; stroke-width: 0.5px; transform-origin: 381.86px 102.91px 0px;" id="elzhsncfxsftc" class="animable"></polyline><line x1="386.44" y1="107.81" x2="386.44" y2="98.34" style="fill: none; stroke: #FF81AE; stroke-miterlimit: 10; stroke-width: 0.5px; transform-origin: 386.44px 103.075px 0px;" id="eldg5ucp1jwgb" class="animable"></line><line x1="372.39" y1="107.81" x2="372.39" y2="98.34" style="fill: none; stroke: #FF81AE; stroke-miterlimit: 10; stroke-width: 0.5px; transform-origin: 372.39px 103.075px 0px;" id="ellczx355y6af" class="animable"></line><rect x="376.64" y="100.46" width="5.55" height="3.92" style="fill: none; stroke: #FF81AE; stroke-miterlimit: 10; transform-origin: 379.415px 102.42px 0px;" id="eldpq0e6x44uo" class="animable"></rect><line x1="367.16" y1="104.22" x2="362.26" y2="104.22" style="fill: none; stroke: #FF81AE; stroke-miterlimit: 10; transform-origin: 364.71px 104.22px 0px;" id="elryrsga7h0ij" class="animable"></line><rect x="392.37" y="110.64" width="11.05" height="300.72" style="fill: rgb(38, 50, 56); transform-origin: 397.895px 261px 0px;" id="elxdmpud3a8p" class="animable"></rect><g id="el9j3ro7vsbq8"><rect x="393.11" y="264.66" width="10.04" height="17.69" rx="3.76" ry="3.76" style="fill: rgb(255, 255, 255); opacity: 0.2; transform-origin: 398.13px 273.505px 0px;" class="animable" id="eld6cocaoi2s"></rect></g></g><g id="freepik--tool-bars--inject-233" style="transform-origin: 254.98px 246.48px 0px;" class="animable animator-hidden"><rect x="67.25" y="210.91" width="37.33" height="131.16" style="fill: rgb(38, 50, 56); transform-origin: 85.915px 276.49px 0px;" id="elg4n4b73cmii" class="animable"></rect><g id="elhj1kngj4elr"><rect x="67.25" y="210.91" width="37.33" height="131.16" style="fill: rgb(255, 255, 255); opacity: 0.2; transform-origin: 85.915px 276.49px 0px;" class="animable" id="el5epe5p80ns6"></rect></g><rect x="70.9" y="228.66" width="13.93" height="14.28" rx="2.17" ry="2.17" style="fill: rgb(38, 50, 56); transform-origin: 77.865px 235.8px 0px;" id="el51teufzdf3u" class="animable"></rect><rect x="67.25" y="210.91" width="37.33" height="6.63" style="fill: rgb(38, 50, 56); transform-origin: 85.915px 214.225px 0px;" id="elprbtgiezaq" class="animable"></rect><line x1="79.6" y1="218.62" x2="79.6" y2="221.5" style="fill: none; stroke: rgb(38, 50, 56); stroke-linecap: round; stroke-linejoin: round; transform-origin: 79.6px 220.06px 0px;" id="elqx0pp226xh8" class="animable"></line><line x1="81.03" y1="218.62" x2="81.03" y2="221.5" style="fill: none; stroke: rgb(38, 50, 56); stroke-linecap: round; stroke-linejoin: round; transform-origin: 81.03px 220.06px 0px;" id="elr0latjjvrs" class="animable"></line><line x1="82.47" y1="218.62" x2="82.47" y2="221.5" style="fill: none; stroke: rgb(38, 50, 56); stroke-linecap: round; stroke-linejoin: round; transform-origin: 82.47px 220.06px 0px;" id="el8vpdid7dec3" class="animable"></line><line x1="83.91" y1="218.62" x2="83.91" y2="221.5" style="fill: none; stroke: rgb(38, 50, 56); stroke-linecap: round; stroke-linejoin: round; transform-origin: 83.91px 220.06px 0px;" id="el8d71glevbq5" class="animable"></line><line x1="85.35" y1="218.62" x2="85.35" y2="221.5" style="fill: none; stroke: rgb(38, 50, 56); stroke-linecap: round; stroke-linejoin: round; transform-origin: 85.35px 220.06px 0px;" id="elx2bwlct04t" class="animable"></line><line x1="86.79" y1="218.62" x2="86.79" y2="221.5" style="fill: none; stroke: rgb(38, 50, 56); stroke-linecap: round; stroke-linejoin: round; transform-origin: 86.79px 220.06px 0px;" id="els6pnhe1swqr" class="animable"></line><line x1="88.23" y1="218.62" x2="88.23" y2="221.5" style="fill: none; stroke: rgb(38, 50, 56); stroke-linecap: round; stroke-linejoin: round; transform-origin: 88.23px 220.06px 0px;" id="el48266539y2y" class="animable"></line><line x1="89.67" y1="218.62" x2="89.67" y2="221.5" style="fill: none; stroke: rgb(38, 50, 56); stroke-linecap: round; stroke-linejoin: round; transform-origin: 89.67px 220.06px 0px;" id="el48hbvgyrux7" class="animable"></line><line x1="91.1" y1="218.62" x2="91.1" y2="221.5" style="fill: none; stroke: rgb(38, 50, 56); stroke-linecap: round; stroke-linejoin: round; transform-origin: 91.1px 220.06px 0px;" id="elid9m20dfm19" class="animable"></line><line x1="92.54" y1="218.62" x2="92.54" y2="221.5" style="fill: none; stroke: rgb(38, 50, 56); stroke-linecap: round; stroke-linejoin: round; transform-origin: 92.54px 220.06px 0px;" id="elgb5absa1v4e" class="animable"></line><path d="M81.89,236.7,75,231a.52.52,0,0,0-.85.45l.81,8.94a.52.52,0,0,0,.39.45l.13,0a.53.53,0,0,0,.43-.22l2-2.94,3.62,0a.53.53,0,0,0,.33-.93Z" style="fill: rgb(255, 255, 255); transform-origin: 78.0951px 235.86px 0px;" id="elqwxzitknsf" class="animable"></path><polygon points="81.55 237.1 74.65 231.37 75.46 240.31 77.67 237.15 81.55 237.1" style="fill: rgb(38, 50, 56); transform-origin: 78.1px 235.84px 0px;" id="elejoszuzb0v" class="animable"></polygon><polygon points="98.44 237.1 91.54 231.37 92.36 240.31 94.56 237.15 98.44 237.1" style="fill: rgb(255, 255, 255); transform-origin: 94.99px 235.84px 0px;" id="elmzdcswnf3a" class="animable"></polygon><polygon points="101.18 242.19 101.05 240.35 99.41 241.89 101.18 242.19" style="fill: rgb(255, 255, 255); transform-origin: 100.295px 241.27px 0px;" id="elp4qfmbbo6i" class="animable"></polygon><polygon points="101.18 300.8 101.05 298.96 99.41 300.51 101.18 300.8" style="fill: rgb(255, 255, 255); transform-origin: 100.295px 299.88px 0px;" id="el490y7vwz4ey" class="animable"></polygon><polygon points="101.18 318.79 101.05 316.95 99.41 318.5 101.18 318.79" style="fill: rgb(255, 255, 255); transform-origin: 100.295px 317.87px 0px;" id="elosh4d7ikz98" class="animable"></polygon><polygon points="101.18 337.24 101.05 335.4 99.41 336.94 101.18 337.24" style="fill: rgb(255, 255, 255); transform-origin: 100.295px 336.32px 0px;" id="elr99gze4ea1o" class="animable"></polygon><polygon points="84.01 280.03 83.88 278.19 82.24 279.74 84.01 280.03" style="fill: rgb(255, 255, 255); transform-origin: 83.125px 279.11px 0px;" id="eliuuktpi1fb" class="animable"></polygon><polygon points="84.01 300.8 83.88 298.96 82.24 300.51 84.01 300.8" style="fill: rgb(255, 255, 255); transform-origin: 83.125px 299.88px 0px;" id="elhl6sti8dlrv" class="animable"></polygon><polygon points="84.01 318.79 83.88 316.95 82.24 318.5 84.01 318.79" style="fill: rgb(255, 255, 255); transform-origin: 83.125px 317.87px 0px;" id="el9lp249h7d" class="animable"></polygon><polygon points="84.01 337.24 83.88 335.4 82.24 336.94 84.01 337.24" style="fill: rgb(255, 255, 255); transform-origin: 83.125px 336.32px 0px;" id="elmx4xj028iy" class="animable"></polygon><g id="el5b8d9co8as5"><rect x="76.14" y="252" width="1.57" height="11.84" style="fill: rgb(255, 255, 255); transform-origin: 76.925px 257.92px 0px; transform: rotate(40.41deg);" class="animable" id="ellx0kyt2bgv"></rect></g><path d="M77.71,253.1c-1.62-1.79-1.65-2.14-.33-4.17-1.79,1.62-2.15,1.65-4.17.34,1.62,1.79,1.65,2.14.34,4.16C75.33,251.81,75.69,251.78,77.71,253.1Z" style="fill: rgb(255, 255, 255); transform-origin: 75.46px 251.18px 0px;" id="elhvxvbdo8r7" class="animable"></path><path d="M84.89,254.07c-1-1.11-1-1.33-.21-2.57-1.1,1-1.32,1-2.57.2,1,1.11,1,1.33.21,2.57C83.42,253.27,83.64,253.26,84.89,254.07Z" style="fill: rgb(255, 255, 255); transform-origin: 83.5px 252.885px 0px;" id="elp05hw2gy5ms" class="animable"></path><path d="M82.88,258.31c-.71-.79-.72-.95-.15-1.84-.78.71-.94.73-1.83.15.71.78.73.94.15,1.83C81.83,257.74,82,257.73,82.88,258.31Z" style="fill: rgb(255, 255, 255); transform-origin: 81.89px 257.46px 0px;" id="elxwxqecpvb" class="animable"></path><polygon points="90.65 298.27 91.37 298.96 99.04 289.94 98.33 289.26 90.65 298.27" style="fill: rgb(255, 255, 255); transform-origin: 94.845px 294.11px 0px;" id="eltccxfor4hkg" class="animable"></polygon><polygon points="101.44 259.6 95.35 254.54 96.07 262.42 98.01 259.64 101.44 259.6" style="fill: rgb(255, 255, 255); transform-origin: 98.395px 258.48px 0px;" id="elryqe9vur6n" class="animable"></polygon><path d="M95.27,260.06c-2.92,0-5.3-1.72-5.3-3.84s2.38-3.84,5.3-3.84,5.3,1.72,5.3,3.84S98.2,260.06,95.27,260.06Zm0-7.22c-2.67,0-4.84,1.51-4.84,3.38s2.17,3.38,4.84,3.38,4.84-1.52,4.84-3.38S97.94,252.84,95.27,252.84Z" style="fill: rgb(255, 255, 255); transform-origin: 95.27px 256.22px 0px;" id="els96n4v520gh" class="animable"></path><path d="M92.05,259.29a1.31,1.31,0,1,1,1.3-1.3A1.31,1.31,0,0,1,92.05,259.29Zm0-2.15a.85.85,0,1,0,.84.85A.85.85,0,0,0,92.05,257.14Z" style="fill: rgb(255, 255, 255); transform-origin: 92.04px 257.98px 0px;" id="elf64ia3wka7e" class="animable"></path><path d="M91.66,260.66l-.15-.43a2.19,2.19,0,0,0,1.32-1,1.55,1.55,0,0,0,.07-1.13l.44-.15a2,2,0,0,1-.09,1.47A2.6,2.6,0,0,1,91.66,260.66Z" style="fill: rgb(255, 255, 255); transform-origin: 92.4745px 259.305px 0px;" id="el2u36kllrwmy" class="animable"></path><g id="elqt606pqmcpq"><rect x="75.98" y="271.25" width="5.73" height="2.66" style="fill: rgb(255, 255, 255); transform-origin: 78.845px 272.58px 0px; transform: rotate(-135deg);" class="animable" id="el7f6g9mjmaeq"></rect></g><path d="M71,278.91l.66.67,3.25-3.25a.62.62,0,0,1,.1-.76.64.64,0,1,1,.13,1l-3.24,3.25.62.61L78,279l1.43-3-4-4-3,1.35Z" style="fill: rgb(255, 255, 255); transform-origin: 75.215px 276.215px 0px;" id="elfedr2xbcuv9" class="animable"></path><line x1="70.42" y1="266.19" x2="102.55" y2="266.19" style="fill: none; stroke: rgb(38, 50, 56); stroke-linecap: round; stroke-linejoin: round; transform-origin: 86.485px 266.19px 0px;" id="elk6o1ulxknff" class="animable"></line><g id="elibn9jsjgh9n"><rect x="96.85" y="269.71" width="2.66" height="5.73" style="fill: rgb(255, 255, 255); transform-origin: 98.18px 272.575px 0px; transform: rotate(-45deg);" class="animable" id="eljevn7aldm8"></rect></g><path d="M91.74,273.4l-1.46,5.51.66.67,3.25-3.25a.62.62,0,0,1,.1-.76.64.64,0,1,1,.13,1l-3.24,3.25.62.61L97.35,279l1.43-3-4-4Z" style="fill: rgb(255, 255, 255); transform-origin: 94.53px 276.215px 0px;" id="elo0g05mw579k" class="animable"></path><path d="M89.76,275c.2-.39.41-.81.62-1.28a3,3,0,0,0,.15-2.51,3.18,3.18,0,0,0-1.88-1.51.26.26,0,0,0-.14.51,2.62,2.62,0,0,1,1.55,1.23,2.46,2.46,0,0,1-.15,2.06c-.21.47-.42.88-.62,1.26-1,2-1.62,3.21,1,5.2a.28.28,0,0,0,.16,0,.25.25,0,0,0,.2-.1.27.27,0,0,0,0-.37C88.33,277.84,88.75,277,89.76,275Z" style="fill: rgb(255, 255, 255); transform-origin: 89.5258px 274.831px 0px;" id="eljh1q9u8cvkb" class="animable"></path><path d="M70.55,288.39v.52a18.39,18.39,0,0,0,.13,2.36l1-.23a11.52,11.52,0,0,1-.1-1.6h4v8.91H74.09v1h4v-1H76.62v-8.91h3.86v1.87h1c0-.68,0-2.41,0-2.41v-.52Z" style="fill: rgb(255, 255, 255); transform-origin: 76.0146px 293.865px 0px;" id="elr2mv6zs9s2t" class="animable"></path><g id="eljj05plliim"><ellipse cx="76.48" cy="313.12" rx="5.75" ry="4.15" style="fill: rgb(255, 255, 255); opacity: 0.44; transform-origin: 76.48px 313.12px 0px;" class="animable" id="eloi7as8v9yb"></ellipse></g><ellipse cx="76.48" cy="313.12" rx="5.75" ry="4.15" style="fill: none; stroke: rgb(255, 255, 255); stroke-miterlimit: 10; transform-origin: 76.48px 313.12px 0px;" id="el0ixh6ig8io2" class="animable"></ellipse><path d="M94,313.24l6.32-6.85a.82.82,0,0,1,1-.15h0a.83.83,0,0,1,.27,1.14L96.76,315Z" style="fill: rgb(255, 255, 255); transform-origin: 97.8565px 310.567px 0px;" id="elyku8lte9g7" class="animable"></path><path d="M93.17,313.81c1.56-.19,4,1.07,3.35,3a2,2,0,0,1-1.06,1,10.24,10.24,0,0,1-4.48.73,1.78,1.78,0,0,0,.87-1.26,12.56,12.56,0,0,0-.08-1.62c0-.77.54-1.81,1.4-1.87" style="fill: rgb(255, 255, 255); transform-origin: 93.8039px 316.175px 0px;" id="eljqm3j3ed3f" class="animable"></path><path d="M79.72,328.84a3.42,3.42,0,0,0-.67-1.87l-1.81,1.81a3.83,3.83,0,0,1,.78,2.13,11.39,11.39,0,0,0,.36,2.09l1.78-1.78A10.34,10.34,0,0,1,79.72,328.84Z" style="fill: rgb(255, 255, 255); transform-origin: 78.7px 329.985px 0px;" id="elnbdp6w646nc" class="animable"></path><path d="M77.63,330.94a3.43,3.43,0,0,0-.67-1.87l-1.82,1.81a3.71,3.71,0,0,1,.79,2.12,11.58,11.58,0,0,0,.35,2.09l1.78-1.78A10.91,10.91,0,0,1,77.63,330.94Z" style="fill: rgb(255, 255, 255); transform-origin: 76.6px 332.08px 0px;" id="el4wvzu63rz3o" class="animable"></path><path d="M80.12,328.81a10.58,10.58,0,0,0,.36,2.09l2.61-2.62-2.67-2.67-1.08,1.08A3.79,3.79,0,0,1,80.12,328.81Z" style="fill: rgb(255, 255, 255); transform-origin: 81.215px 328.255px 0px;" id="ell07vcf09bob" class="animable"></path><path d="M75.53,333a3.42,3.42,0,0,0-.67-1.87l-1.52,1.52-1.12,3.46a.3.3,0,0,0,.39.38L76,335.38A11.86,11.86,0,0,1,75.53,333Zm-2.15,2.31.6-1.83,1.21,1.21Z" style="fill: rgb(255, 255, 255); transform-origin: 74.1015px 333.82px 0px;" id="elt92sbfkj2" class="animable"></path><path d="M90.89,330.48l-2,2,4.7,4.71,2-2,.29.29,4.7-4.71-5.27-5.28-4.71,4.71ZM93.6,336,90,332.47l1.42-1.42L95,334.61Z" style="fill: rgb(255, 255, 255); transform-origin: 94.735px 331.34px 0px;" id="el1vuudfe307i" class="animable"></path><polygon points="73.8 212.66 73.8 213.29 72.49 214.4 73.8 215.5 73.8 216.13 71.74 214.4 73.8 212.66" style="fill: rgb(255, 255, 255); transform-origin: 72.77px 214.395px 0px;" id="el870v0dhueiq" class="animable"></polygon><polygon points="71.54 212.66 71.54 213.29 70.24 214.4 71.54 215.5 71.54 216.13 69.48 214.4 71.54 212.66" style="fill: rgb(255, 255, 255); transform-origin: 70.51px 214.395px 0px;" id="els2rs38vtj9c" class="animable"></polygon><rect x="310.75" y="150.89" width="131.96" height="87.34" style="fill: rgb(38, 50, 56); transform-origin: 376.73px 194.56px 0px;" id="el3g3sdpq4bco" class="animable"></rect><g id="elh9f7ha5zctt"><rect x="355.46" y="154.54" width="87.25" height="16.79" style="fill: rgb(255, 255, 255); opacity: 0.1; transform-origin: 399.085px 162.935px 0px;" class="animable" id="elcvf5jsrx7eh"></rect></g><g id="eljq4rr80lkx"><polygon points="355.46 171.34 355.46 154.54 310.75 154.54 310.75 238.23 442.71 238.23 442.71 171.34 355.46 171.34" style="fill: rgb(255, 255, 255); opacity: 0.2; transform-origin: 376.73px 196.385px 0px;" class="animable" id="elgblivgo5e75"></polygon></g><rect x="319.48" y="186.98" width="6.45" height="6.45" style="fill: rgb(255, 255, 255); transform-origin: 322.705px 190.205px 0px;" id="elfr00swwx1km" class="animable"></rect><rect x="322.7" y="190.2" width="6.45" height="6.45" style="fill: rgb(255, 255, 255); transform-origin: 325.925px 193.425px 0px;" id="ellblpsayfcn9" class="animable"></rect><polygon points="342.94 190.2 346.16 190.2 346.16 186.98 339.71 186.98 339.71 193.43 342.94 193.43 342.94 190.2" style="fill: rgb(255, 255, 255); transform-origin: 342.935px 190.205px 0px;" id="el64n7qvlag1u" class="animable"></polygon><path d="M349.66,196.92h-7v-7h7Zm-6.45-.55h5.9v-5.89h-5.9Z" style="fill: rgb(255, 255, 255); transform-origin: 346.16px 193.42px 0px;" id="eluqw2nwjzigp" class="animable"></path><path d="M366.94,193.7h-7v-7h7Zm-6.44-.55h5.9v-5.9h-5.9Z" style="fill: rgb(255, 255, 255); transform-origin: 363.44px 190.2px 0px;" id="eltac7dli1ri" class="animable"></path><path d="M370.17,196.92h-7v-7h7Zm-6.45-.55h5.9v-5.89h-5.9Z" style="fill: rgb(255, 255, 255); transform-origin: 366.67px 193.42px 0px;" id="elilek28oxe3a" class="animable"></path><rect x="363.45" y="190.2" width="3.22" height="3.22" style="fill: rgb(255, 255, 255); transform-origin: 365.06px 191.81px 0px;" id="ellttgot68sqd" class="animable"></rect><path d="M387.3,226.55h-6.63v-6.63h6.63Zm-6.45-.18h6.27V220.1h-6.27Z" style="fill: rgb(255, 255, 255); transform-origin: 383.985px 223.235px 0px;" id="el7fbjhi9rl0o" class="animable"></path><path d="M390.71,230h-7v-7h7Zm-6.45-.54h5.9v-5.9h-5.9Z" style="fill: rgb(255, 255, 255); transform-origin: 387.21px 226.5px 0px;" id="elap19nn3ufu" class="animable"></path><rect x="383.99" y="223.24" width="3.22" height="3.22" style="fill: rgb(255, 255, 255); transform-origin: 385.6px 224.85px 0px;" id="el0ofvwoausz7p" class="animable"></rect><path d="M408.16,226.73h-7v-7h7Zm-6.44-.55h5.89v-5.89h-5.89Z" style="fill: rgb(255, 255, 255); transform-origin: 404.66px 223.23px 0px;" id="elo0f38zxwujp" class="animable"></path><path d="M411.38,230h-7v-7h7Zm-6.44-.54h5.9v-5.9h-5.9Z" style="fill: rgb(255, 255, 255); transform-origin: 407.88px 226.5px 0px;" id="eli2bszl2yulb" class="animable"></path><polygon points="428.47 223.24 428.47 226.46 425.25 226.46 425.25 229.68 431.7 229.68 431.7 223.24 428.47 223.24" style="fill: rgb(255, 255, 255); transform-origin: 428.475px 226.46px 0px;" id="elbfm7ix54ghn" class="animable"></polygon><path d="M432,230h-7v-3.77h3.22V223H432Zm-6.45-.54h5.9v-5.9h-2.67v3.22h-3.23Z" style="fill: rgb(255, 255, 255); transform-origin: 428.5px 226.5px 0px;" id="el9qxonhn728e" class="animable"></path><path d="M428.75,226.73h-7v-7h7Zm-6.45-.55h5.9v-5.89h-5.9Z" style="fill: rgb(255, 255, 255); transform-origin: 425.25px 223.23px 0px;" id="el7u0mnrkdjjr" class="animable"></path><polygon points="321.95 222.14 325.54 222.14 325.54 219.29 319.09 219.29 319.09 225.73 321.95 225.73 321.95 222.14" style="fill: rgb(255, 255, 255); transform-origin: 322.315px 222.51px 0px;" id="elcjqwyu5jghv" class="animable"></polygon><rect x="322.68" y="222.87" width="2.49" height="2.49" style="fill: rgb(255, 255, 255); transform-origin: 323.925px 224.115px 0px;" id="elj1c3e4ll47c" class="animable"></rect><polygon points="325.9 222.51 325.9 226.1 322.32 226.1 322.32 228.96 328.76 228.96 328.76 222.51 325.9 222.51" style="fill: rgb(255, 255, 255); transform-origin: 325.54px 225.735px 0px;" id="el0a17degydmpo" class="animable"></polygon><polygon points="387.05 190.2 387.05 186.98 380.6 186.98 380.6 193.43 383.82 193.43 383.82 190.2 387.05 190.2" style="fill: rgb(255, 255, 255); transform-origin: 383.825px 190.205px 0px;" id="elefzbkz4m8nd" class="animable"></polygon><polygon points="387.05 190.2 387.05 193.43 383.82 193.43 383.82 196.65 390.27 196.65 390.27 190.2 387.05 190.2" style="fill: rgb(255, 255, 255); transform-origin: 387.045px 193.425px 0px;" id="elv3sky44aoq" class="animable"></polygon><polygon points="342.07 222.02 346.13 222.02 346.13 219.04 339.68 219.04 339.68 225.49 342.07 225.49 342.07 222.02" style="fill: rgb(255, 255, 255); transform-origin: 342.905px 222.265px 0px;" id="el0vwi95q6yk1" class="animable"></polygon><rect x="342.72" y="222.75" width="6.63" height="5.96" style="fill: rgb(255, 255, 255); transform-origin: 346.035px 225.73px 0px;" id="ellqh3aenlqnm" class="animable"></rect><polygon points="366.71 223 366.71 219.77 360.27 219.77 360.27 226.22 363.03 226.22 363.03 223.28 363.76 223.28 363.76 229.44 369.94 229.44 369.94 223 366.71 223" style="fill: rgb(255, 255, 255); transform-origin: 365.105px 224.605px 0px;" id="el8oekni1vs0h" class="animable"></polygon><line x1="320.05" y1="211.86" x2="346.7" y2="211.86" style="fill: none; stroke: rgb(255, 255, 255); stroke-miterlimit: 10; stroke-width: 2px; transform-origin: 333.375px 211.86px 0px;" id="eli41xp8a0nd" class="animable"></line><line x1="320.05" y1="163.3" x2="346.7" y2="163.3" style="fill: none; stroke: rgb(255, 255, 255); stroke-miterlimit: 10; stroke-width: 2px; transform-origin: 333.375px 163.3px 0px;" id="el7ub1fr1ub2t" class="animable"></line><line x1="320.05" y1="180.65" x2="359.47" y2="180.65" style="fill: none; stroke: rgb(255, 255, 255); stroke-miterlimit: 10; stroke-width: 2px; transform-origin: 339.76px 180.65px 0px;" id="elc4exl7xb3n4" class="animable"></line><polygon points="418.79 158.56 418.79 159.44 420.62 160.99 418.79 162.53 418.79 163.41 421.67 160.99 418.79 158.56" style="fill: rgb(255, 255, 255); transform-origin: 420.23px 160.985px 0px;" id="elehfa8dtlb9s" class="animable"></polygon><polygon points="421.94 158.56 421.94 159.44 423.77 160.99 421.94 162.53 421.94 163.41 424.82 160.99 421.94 158.56" style="fill: rgb(255, 255, 255); transform-origin: 423.38px 160.985px 0px;" id="elo4whogd9al" class="animable"></polygon><line x1="428.47" y1="157.1" x2="428.47" y2="165.49" style="fill: none; stroke: rgb(255, 255, 255); stroke-miterlimit: 10; stroke-width: 0.5px; transform-origin: 428.47px 161.295px 0px;" id="elj145ejbcfuj" class="animable"></line><line x1="432.12" y1="159.65" x2="438.7" y2="159.65" style="fill: none; stroke: rgb(255, 255, 255); stroke-miterlimit: 10; stroke-width: 0.5px; transform-origin: 435.41px 159.65px 0px;" id="elxxqccldg3ej" class="animable"></line><line x1="432.12" y1="161.11" x2="438.7" y2="161.11" style="fill: none; stroke: rgb(255, 255, 255); stroke-miterlimit: 10; stroke-width: 0.5px; transform-origin: 435.41px 161.11px 0px;" id="el60emtb8kfuo" class="animable"></line><line x1="432.12" y1="162.57" x2="438.7" y2="162.57" style="fill: none; stroke: rgb(255, 255, 255); stroke-miterlimit: 10; stroke-width: 0.5px; transform-origin: 435.41px 162.57px 0px;" id="eluagykpr1ad" class="animable"></line><line x1="432.12" y1="164.03" x2="438.7" y2="164.03" style="fill: none; stroke: rgb(255, 255, 255); stroke-miterlimit: 10; stroke-width: 0.5px; transform-origin: 435.41px 164.03px 0px;" id="eld8qz0e32nrk" class="animable"></line></g><defs>     <filter id="active" height="200%">         <feMorphology in="SourceAlpha" result="DILATED" operator="dilate" radius="2"></feMorphology>                <feFlood flood-color="#32DFEC" flood-opacity="1" result="PINK"></feFlood>        <feComposite in="PINK" in2="DILATED" operator="in" result="OUTLINE"></feComposite>        <feMerge>            <feMergeNode in="OUTLINE"></feMergeNode>            <feMergeNode in="SourceGraphic"></feMergeNode>        </feMerge>    </filter>    <filter id="hover" height="200%">        <feMorphology in="SourceAlpha" result="DILATED" operator="dilate" radius="2"></feMorphology>                <feFlood flood-color="#ff0000" flood-opacity="0.5" result="PINK"></feFlood>        <feComposite in="PINK" in2="DILATED" operator="in" result="OUTLINE"></feComposite>        <feMerge>            <feMergeNode in="OUTLINE"></feMergeNode>            <feMergeNode in="SourceGraphic"></feMergeNode>        </feMerge>            <feColorMatrix type="matrix" values="0   0   0   0   0                0   1   0   0   0                0   0   0   0   0                0   0   0   1   0 "></feColorMatrix>    </filter></defs></svg>